<svg id="mermaid-1773284812019" width="100%" xmlns="http://www.w3.org/2000/svg" style="max-width: 100%; height: auto; background-color: transparent;" viewBox="-8 -8 964.31640625 1154" role="graphics-document document" aria-roledescription="flowchart-v2"><style>#mermaid-1773284812019{font-family:monospace;font-size:16px;fill:#ccc;}#mermaid-1773284812019 .error-icon{fill:#a44141;}#mermaid-1773284812019 .error-text{fill:#ddd;stroke:#ddd;}#mermaid-1773284812019 .edge-thickness-normal{stroke-width:2px;}#mermaid-1773284812019 .edge-thickness-thick{stroke-width:3.5px;}#mermaid-1773284812019 .edge-pattern-solid{stroke-dasharray:0;}#mermaid-1773284812019 .edge-pattern-dashed{stroke-dasharray:3;}#mermaid-1773284812019 .edge-pattern-dotted{stroke-dasharray:2;}#mermaid-1773284812019 .marker{fill:lightgrey;stroke:lightgrey;}#mermaid-1773284812019 .marker.cross{stroke:lightgrey;}#mermaid-1773284812019 svg{font-family:monospace;font-size:16px;}#mermaid-1773284812019 .label{font-family:monospace;color:#ccc;}#mermaid-1773284812019 .cluster-label text{fill:#F9FFFE;}#mermaid-1773284812019 .cluster-label span,#mermaid-1773284812019 p{color:#F9FFFE;}#mermaid-1773284812019 .label text,#mermaid-1773284812019 span,#mermaid-1773284812019 p{fill:#ccc;color:#ccc;}#mermaid-1773284812019 .node rect,#mermaid-1773284812019 .node circle,#mermaid-1773284812019 .node ellipse,#mermaid-1773284812019 .node polygon,#mermaid-1773284812019 .node path{fill:#1f2020;stroke:#81B1DB;stroke-width:1px;}#mermaid-1773284812019 .flowchart-label text{text-anchor:middle;}#mermaid-1773284812019 .node .katex path{fill:#000;stroke:#000;stroke-width:1px;}#mermaid-1773284812019 .node .label{text-align:center;}#mermaid-1773284812019 .node.clickable{cursor:pointer;}#mermaid-1773284812019 .arrowheadPath{fill:lightgrey;}#mermaid-1773284812019 .edgePath .path{stroke:lightgrey;stroke-width:2.0px;}#mermaid-1773284812019 .flowchart-link{stroke:lightgrey;fill:none;}#mermaid-1773284812019 .edgeLabel{background-color:hsl(0, 0%, 34.4117647059%);text-align:center;}#mermaid-1773284812019 .edgeLabel rect{opacity:0.5;background-color:hsl(0, 0%, 34.4117647059%);fill:hsl(0, 0%, 34.4117647059%);}#mermaid-1773284812019 .labelBkg{background-color:rgba(87.75, 87.75, 87.75, 0.5);}#mermaid-1773284812019 .cluster rect{fill:hsl(180, 1.5873015873%, 28.3529411765%);stroke:rgba(255, 255, 255, 0.25);stroke-width:1px;}#mermaid-1773284812019 .cluster text{fill:#F9FFFE;}#mermaid-1773284812019 .cluster span,#mermaid-1773284812019 p{color:#F9FFFE;}#mermaid-1773284812019 div.mermaidTooltip{position:absolute;text-align:center;max-width:200px;padding:2px;font-family:monospace;font-size:12px;background:hsl(20, 1.5873015873%, 12.3529411765%);border:1px solid rgba(255, 255, 255, 0.25);border-radius:2px;pointer-events:none;z-index:100;}#mermaid-1773284812019 .flowchartTitleText{text-anchor:middle;font-size:18px;fill:#ccc;}#mermaid-1773284812019 :root{--mermaid-font-family:monospace;}</style><g><marker id="mermaid-1773284812019_flowchart-pointEnd" class="marker flowchart" viewBox="0 0 10 10" refX="6" refY="5" markerUnits="userSpaceOnUse" markerWidth="12" markerHeight="12" orient="auto"><path d="M 0 0 L 10 5 L 0 10 z" class="arrowMarkerPath" style="stroke-width: 1; stroke-dasharray: 1, 0;"></path></marker><marker id="mermaid-1773284812019_flowchart-pointStart" class="marker flowchart" viewBox="0 0 10 10" refX="4.5" refY="5" markerUnits="userSpaceOnUse" markerWidth="12" markerHeight="12" orient="auto"><path d="M 0 5 L 10 10 L 10 0 z" class="arrowMarkerPath" style="stroke-width: 1; stroke-dasharray: 1, 0;"></path></marker><marker id="mermaid-1773284812019_flowchart-circleEnd" class="marker flowchart" viewBox="0 0 10 10" refX="11" refY="5" markerUnits="userSpaceOnUse" markerWidth="11" markerHeight="11" orient="auto"><circle cx="5" cy="5" r="5" class="arrowMarkerPath" style="stroke-width: 1; stroke-dasharray: 1, 0;"></circle></marker><marker id="mermaid-1773284812019_flowchart-circleStart" class="marker flowchart" viewBox="0 0 10 10" refX="-1" refY="5" markerUnits="userSpaceOnUse" markerWidth="11" markerHeight="11" orient="auto"><circle cx="5" cy="5" r="5" class="arrowMarkerPath" style="stroke-width: 1; stroke-dasharray: 1, 0;"></circle></marker><marker id="mermaid-1773284812019_flowchart-crossEnd" class="marker cross flowchart" viewBox="0 0 11 11" refX="12" refY="5.2" markerUnits="userSpaceOnUse" markerWidth="11" markerHeight="11" orient="auto"><path d="M 1,1 l 9,9 M 10,1 l -9,9" class="arrowMarkerPath" style="stroke-width: 2; stroke-dasharray: 1, 0;"></path></marker><marker id="mermaid-1773284812019_flowchart-crossStart" class="marker cross flowchart" viewBox="0 0 11 11" refX="-1" refY="5.2" markerUnits="userSpaceOnUse" markerWidth="11" markerHeight="11" orient="auto"><path d="M 1,1 l 9,9 M 10,1 l -9,9" class="arrowMarkerPath" style="stroke-width: 2; stroke-dasharray: 1, 0;"></path></marker><g class="root"><g class="clusters"><g class="cluster default flowchart-label" id="notificacao"><rect style="" rx="0" ry="0" x="83.5703125" y="0" width="485.0703125" height="84"></rect><g class="cluster-label" transform="translate(123.77734375, 0)"><foreignObject width="404.65625" height="24"><div xmlns="http://www.w3.org/1999/xhtml" style="display: inline-block; white-space: nowrap;"><span class="nodeLabel">Subdominio Generico: Comunicacao com o Usuario</span></div></foreignObject></g></g><g class="cluster default flowchart-label" id="relatorios"><rect style="" rx="0" ry="0" x="88.96484375" y="1054" width="786.984375" height="84"></rect><g class="cluster-label" transform="translate(271.33203125, 1054)"><foreignObject width="422.25" height="24"><div xmlns="http://www.w3.org/1999/xhtml" style="display: inline-block; white-space: nowrap;"><span class="nodeLabel">Subdominio de Apoio: Acompanhamento do Resultado</span></div></foreignObject></g></g><g class="cluster default flowchart-label" id="worker"><rect style="" rx="0" ry="0" x="0" y="644" width="743.58203125" height="336"></rect><g class="cluster-label" transform="translate(217.845703125, 644)"><foreignObject width="307.890625" height="24"><div xmlns="http://www.w3.org/1999/xhtml" style="display: inline-block; white-space: nowrap;"><span class="nodeLabel">Core Domain: Processamento de Video</span></div></foreignObject></g></g><g class="cluster default flowchart-label" id="envio"><rect style="" rx="0" ry="0" x="11.78515625" y="510" width="367.30859375" height="84"></rect><g class="cluster-label" transform="translate(23.900390625, 510)"><foreignObject width="343.078125" height="24"><div xmlns="http://www.w3.org/1999/xhtml" style="display: inline-block; white-space: nowrap;"><span class="nodeLabel">Subdominio de Apoio: Submissao de Video</span></div></foreignObject></g></g><g class="cluster default flowchart-label" id="identidade"><rect style="" rx="0" ry="0" x="98.58984375" y="376" width="351.875" height="84"></rect><g class="cluster-label" transform="translate(98.58984375, 376)"><foreignObject width="351.875" height="24"><div xmlns="http://www.w3.org/1999/xhtml" style="display: inline-block; white-space: nowrap;"><span class="nodeLabel">Subdominio Generico: Identidade e Acesso</span></div></foreignObject></g></g><g class="cluster default flowchart-label" id="experiencia"><rect style="" rx="0" ry="0" x="4.2109375" y="242" width="378.265625" height="84"></rect><g class="cluster-label" transform="translate(4.2109375, 242)"><foreignObject width="378.265625" height="24"><div xmlns="http://www.w3.org/1999/xhtml" style="display: inline-block; white-space: nowrap;"><span class="nodeLabel">Subdominio de Apoio: Experiencia do Usuario</span></div></foreignObject></g></g></g><g class="edgePaths"><path d="M198.344,192L198.344,196.167C198.344,200.333,198.344,208.667,198.344,217C198.344,225.333,198.344,233.667,198.344,241.117C198.344,248.567,198.344,255.133,198.344,258.417L198.344,261.7" id="L-usuario-portal-0" class=" edge-thickness-normal edge-pattern-solid flowchart-link LS-usuario LE-portal" style="fill:none;" marker-end="url(#mermaid-1773284812019_flowchart-pointEnd)"></path><path d="M229.18,301L236.738,305.167C244.296,309.333,259.412,317.667,266.969,326C274.527,334.333,274.527,342.667,274.527,351C274.527,359.333,274.527,367.667,274.527,375.117C274.527,382.567,274.527,389.133,274.527,392.417L274.527,395.7" id="L-portal-acesso-0" class=" edge-thickness-normal edge-pattern-solid flowchart-link LS-portal LE-acesso" style="fill:none;" marker-end="url(#mermaid-1773284812019_flowchart-pointEnd)"></path><path d="M167.508,301L159.95,305.167C152.392,309.333,137.276,317.667,129.718,326C122.16,334.333,122.16,342.667,122.16,351C122.16,359.333,122.16,367.667,122.16,378.833C122.16,390,122.16,404,122.16,418C122.16,432,122.16,446,122.16,457.167C122.16,468.333,122.16,476.667,122.16,485C122.16,493.333,122.16,501.667,128.944,509.574C135.729,517.48,149.297,524.961,156.082,528.701L162.866,532.441" id="L-portal-solicitar-0" class=" edge-thickness-normal edge-pattern-solid flowchart-link LS-portal LE-solicitar" style="fill:none;" marker-end="url(#mermaid-1773284812019_flowchart-pointEnd)"></path><path d="M274.527,435L274.527,439.167C274.527,443.333,274.527,451.667,274.527,460C274.527,468.333,274.527,476.667,274.527,485C274.527,493.333,274.527,501.667,267.743,509.574C260.959,517.48,247.39,524.961,240.606,528.701L233.821,532.441" id="L-acesso-solicitar-0" class=" edge-thickness-normal edge-pattern-solid flowchart-link LS-acesso LE-solicitar" style="fill:none;" marker-end="url(#mermaid-1773284812019_flowchart-pointEnd)"></path><path d="M198.344,569L198.344,573.167C198.344,577.333,198.344,585.667,198.344,594C198.344,602.333,198.344,610.667,198.344,619C198.344,627.333,198.344,635.667,198.344,643.117C198.344,650.567,198.344,657.133,198.344,660.417L198.344,663.7" id="L-solicitar-receber-0" class=" edge-thickness-normal edge-pattern-solid flowchart-link LS-solicitar LE-receber" style="fill:none;" marker-end="url(#mermaid-1773284812019_flowchart-pointEnd)"></path><path d="M198.344,703L198.344,707.167C198.344,711.333,198.344,719.667,198.344,727.117C198.344,734.567,198.344,741.133,198.344,744.417L198.344,747.7" id="L-receber-extrair-0" class=" edge-thickness-normal edge-pattern-solid flowchart-link LS-receber LE-extrair" style="fill:none;" marker-end="url(#mermaid-1773284812019_flowchart-pointEnd)"></path><path d="M198.344,787L198.344,791.167C198.344,795.333,198.344,803.667,198.344,811.117C198.344,818.567,198.344,825.133,198.344,828.417L198.344,831.7" id="L-extrair-progresso-0" class=" edge-thickness-normal edge-pattern-solid flowchart-link LS-extrair LE-progresso" style="fill:none;" marker-end="url(#mermaid-1773284812019_flowchart-pointEnd)"></path><path d="M265.19,871L281.573,875.167C297.957,879.333,330.725,887.667,362.103,895.775C393.481,903.884,423.469,911.768,438.464,915.71L453.458,919.652" id="L-progresso-encerrar-0" class=" edge-thickness-normal edge-pattern-solid flowchart-link LS-progresso LE-encerrar" style="fill:none;" marker-end="url(#mermaid-1773284812019_flowchart-pointEnd)"></path><path d="M194.296,871L193.304,875.167C192.312,879.333,190.328,887.667,189.336,898.833C188.344,910,188.344,924,188.344,938C188.344,952,188.344,966,188.344,979.167C188.344,992.333,188.344,1004.667,188.344,1017C188.344,1029.333,188.344,1041.667,222.658,1052.137C256.972,1062.607,325.601,1071.213,359.915,1075.517L394.229,1079.82" id="L-progresso-reports-0" class=" edge-thickness-normal edge-pattern-solid flowchart-link LS-progresso LE-reports" style="fill:none;" marker-end="url(#mermaid-1773284812019_flowchart-pointEnd)"></path><path d="M523.246,955L523.246,959.167C523.246,963.333,523.246,971.667,523.246,982C523.246,992.333,523.246,1004.667,523.246,1017C523.246,1029.333,523.246,1041.667,523.246,1051.117C523.246,1060.567,523.246,1067.133,523.246,1070.417L523.246,1073.7" id="L-encerrar-reports-0" class=" edge-thickness-normal edge-pattern-solid flowchart-link LS-encerrar LE-reports" style="fill:none;" marker-end="url(#mermaid-1773284812019_flowchart-pointEnd)"></path><path d="M527.294,921L528.286,916.833C529.278,912.667,531.262,904.333,532.254,893.167C533.246,882,533.246,868,533.246,854C533.246,840,533.246,826,533.246,812C533.246,798,533.246,784,533.246,770C533.246,756,533.246,742,533.246,728C533.246,714,533.246,700,533.246,686C533.246,672,533.246,658,533.246,646.833C533.246,635.667,533.246,627.333,533.246,619C533.246,610.667,533.246,602.333,533.246,591.167C533.246,580,533.246,566,533.246,552C533.246,538,533.246,524,533.246,512.833C533.246,501.667,533.246,493.333,533.246,485C533.246,476.667,533.246,468.333,533.246,457.167C533.246,446,533.246,432,533.246,418C533.246,404,533.246,390,533.246,378.833C533.246,367.667,533.246,359.333,533.246,351C533.246,342.667,533.246,334.333,533.246,323.167C533.246,312,533.246,298,533.246,284C533.246,270,533.246,256,533.246,244.833C533.246,233.667,533.246,225.333,533.246,214.167C533.246,203,533.246,189,533.246,173C533.246,157,533.246,139,533.246,123.833C533.246,108.667,533.246,96.333,506.658,85.6C480.069,74.866,426.892,65.733,400.304,61.166L373.716,56.599" id="L-encerrar-avisos-0" class=" edge-thickness-normal edge-pattern-solid flowchart-link LS-encerrar LE-avisos" style="fill:none;" marker-end="url(#mermaid-1773284812019_flowchart-pointEnd)"></path><path d="M647.004,1080.377L681.828,1075.981C716.652,1071.585,786.301,1062.792,821.125,1052.229C855.949,1041.667,855.949,1029.333,855.949,1017C855.949,1004.667,855.949,992.333,855.949,979.167C855.949,966,855.949,952,855.949,938C855.949,924,855.949,910,855.949,896C855.949,882,855.949,868,855.949,854C855.949,840,855.949,826,855.949,812C855.949,798,855.949,784,855.949,770C855.949,756,855.949,742,855.949,728C855.949,714,855.949,700,855.949,686C855.949,672,855.949,658,855.949,646.833C855.949,635.667,855.949,627.333,855.949,619C855.949,610.667,855.949,602.333,855.949,591.167C855.949,580,855.949,566,855.949,552C855.949,538,855.949,524,855.949,512.833C855.949,501.667,855.949,493.333,855.949,485C855.949,476.667,855.949,468.333,855.949,457.167C855.949,446,855.949,432,855.949,418C855.949,404,855.949,390,855.949,378.833C855.949,367.667,855.949,359.333,855.949,351C855.949,342.667,855.949,334.333,855.949,323.167C855.949,312,855.949,298,855.949,284C855.949,270,855.949,256,855.949,244.833C855.949,233.667,855.949,225.333,753.195,214.604C650.44,203.875,444.931,190.749,342.177,184.186L239.422,177.624" id="L-reports-usuario-0" class=" edge-thickness-normal edge-pattern-solid flowchart-link LS-reports LE-usuario" style="fill:none;" marker-end="url(#mermaid-1773284812019_flowchart-pointEnd)"></path><path d="M252.138,59L243.173,63.167C234.207,67.333,216.275,75.667,207.31,86C198.344,96.333,198.344,108.667,198.344,120.117C198.344,131.567,198.344,142.133,198.344,147.417L198.344,152.7" id="L-avisos-usuario-0" class=" edge-thickness-normal edge-pattern-solid flowchart-link LS-avisos LE-usuario" style="fill:none;" marker-end="url(#mermaid-1773284812019_flowchart-pointEnd)"></path></g><g class="edgeLabels"><g class="edgeLabel"><g class="label" transform="translate(0, 0)"><foreignObject width="0" height="0"><div xmlns="http://www.w3.org/1999/xhtml" style="display: inline-block; white-space: nowrap;"><span class="edgeLabel"></span></div></foreignObject></g></g><g class="edgeLabel"><g class="label" transform="translate(0, 0)"><foreignObject width="0" height="0"><div xmlns="http://www.w3.org/1999/xhtml" style="display: inline-block; white-space: nowrap;"><span class="edgeLabel"></span></div></foreignObject></g></g><g class="edgeLabel"><g class="label" transform="translate(0, 0)"><foreignObject width="0" height="0"><div xmlns="http://www.w3.org/1999/xhtml" style="display: inline-block; white-space: nowrap;"><span class="edgeLabel"></span></div></foreignObject></g></g><g class="edgeLabel"><g class="label" transform="translate(0, 0)"><foreignObject width="0" height="0"><div xmlns="http://www.w3.org/1999/xhtml" style="display: inline-block; white-space: nowrap;"><span class="edgeLabel"></span></div></foreignObject></g></g><g class="edgeLabel"><g class="label" transform="translate(0, 0)"><foreignObject width="0" height="0"><div xmlns="http://www.w3.org/1999/xhtml" style="display: inline-block; white-space: nowrap;"><span class="edgeLabel"></span></div></foreignObject></g></g><g class="edgeLabel"><g class="label" transform="translate(0, 0)"><foreignObject width="0" height="0"><div xmlns="http://www.w3.org/1999/xhtml" style="display: inline-block; white-space: nowrap;"><span class="edgeLabel"></span></div></foreignObject></g></g><g class="edgeLabel"><g class="label" transform="translate(0, 0)"><foreignObject width="0" height="0"><div xmlns="http://www.w3.org/1999/xhtml" style="display: inline-block; white-space: nowrap;"><span class="edgeLabel"></span></div></foreignObject></g></g><g class="edgeLabel"><g class="label" transform="translate(0, 0)"><foreignObject width="0" height="0"><div xmlns="http://www.w3.org/1999/xhtml" style="display: inline-block; white-space: nowrap;"><span class="edgeLabel"></span></div></foreignObject></g></g><g class="edgeLabel" transform="translate(188.34375, 938)"><g class="label" transform="translate(-109.9609375, -12)"><foreignObject width="219.921875" height="24"><div xmlns="http://www.w3.org/1999/xhtml" style="display: inline-block; white-space: nowrap;"><span class="edgeLabel">evolucao do processamento</span></div></foreignObject></g></g><g class="edgeLabel" transform="translate(523.24609375, 1017)"><g class="label" transform="translate(-140.75, -12)"><foreignObject width="281.5" height="24"><div xmlns="http://www.w3.org/1999/xhtml" style="display: inline-block; white-space: nowrap;"><span class="edgeLabel">resultado final do processamento</span></div></foreignObject></g></g><g class="edgeLabel" transform="translate(533.24609375, 552)"><g class="label" transform="translate(-118.7578125, -12)"><foreignObject width="237.515625" height="24"><div xmlns="http://www.w3.org/1999/xhtml" style="display: inline-block; white-space: nowrap;"><span class="edgeLabel">conclusao ou erro relevante</span></div></foreignObject></g></g><g class="edgeLabel" transform="translate(855.94921875, 686)"><g class="label" transform="translate(-92.3671875, -12)"><foreignObject width="184.734375" height="24"><div xmlns="http://www.w3.org/1999/xhtml" style="display: inline-block; white-space: nowrap;"><span class="edgeLabel">andamento e resultado</span></div></foreignObject></g></g><g class="edgeLabel" transform="translate(198.34375, 121)"><g class="label" transform="translate(-92.3671875, -12)"><foreignObject width="184.734375" height="24"><div xmlns="http://www.w3.org/1999/xhtml" style="display: inline-block; white-space: nowrap;"><span class="edgeLabel">comunicacao de status</span></div></foreignObject></g></g></g><g class="nodes"><g class="node default default flowchart-label" id="flowchart-avisos-304" data-node="true" data-id="avisos" transform="translate(288.71875, 42)"><rect class="basic label-container" style="" rx="0" ry="0" x="-79.7734375" y="-17" width="159.546875" height="34"></rect><g class="label" style="" transform="translate(-74.7734375, -12)"><rect></rect><foreignObject width="149.546875" height="24"><div xmlns="http://www.w3.org/1999/xhtml" style="display: inline-block; white-space: nowrap;"><span class="nodeLabel">Notificar usuario</span></div></foreignObject></g></g><g class="node default default flowchart-label" id="flowchart-reports-303" data-node="true" data-id="reports" transform="translate(523.24609375, 1096)"><rect class="basic label-container" style="" rx="0" ry="0" x="-123.7578125" y="-17" width="247.515625" height="34"></rect><g class="label" style="" transform="translate(-118.7578125, -12)"><rect></rect><foreignObject width="237.515625" height="24"><div xmlns="http://www.w3.org/1999/xhtml" style="display: inline-block; white-space: nowrap;"><span class="nodeLabel">Relatorios de processamento</span></div></foreignObject></g></g><g class="node default default flowchart-label" id="flowchart-receber-299" data-node="true" data-id="receber" transform="translate(198.34375, 686)"><rect class="basic label-container" style="" rx="0" ry="0" x="-150.1484375" y="-17" width="300.296875" height="34"></rect><g class="label" style="" transform="translate(-145.1484375, -12)"><rect></rect><foreignObject width="290.296875" height="24"><div xmlns="http://www.w3.org/1999/xhtml" style="display: inline-block; white-space: nowrap;"><span class="nodeLabel">Receber trabalho de processamento</span></div></foreignObject></g></g><g class="node default default flowchart-label" id="flowchart-extrair-300" data-node="true" data-id="extrair" transform="translate(198.34375, 770)"><rect class="basic label-container" style="" rx="0" ry="0" x="-150.1484375" y="-17" width="300.296875" height="34"></rect><g class="label" style="" transform="translate(-145.1484375, -12)"><rect></rect><foreignObject width="290.296875" height="24"><div xmlns="http://www.w3.org/1999/xhtml" style="display: inline-block; white-space: nowrap;"><span class="nodeLabel">Extrair imagens ao longo do video</span></div></foreignObject></g></g><g class="node default default flowchart-label" id="flowchart-progresso-301" data-node="true" data-id="progresso" transform="translate(198.34375, 854)"><rect class="basic label-container" style="" rx="0" ry="0" x="-163.34375" y="-17" width="326.6875" height="34"></rect><g class="label" style="" transform="translate(-158.34375, -12)"><rect></rect><foreignObject width="316.6875" height="24"><div xmlns="http://www.w3.org/1999/xhtml" style="display: inline-block; white-space: nowrap;"><span class="nodeLabel">Atualizar andamento do processamento</span></div></foreignObject></g></g><g class="node default default flowchart-label" id="flowchart-encerrar-302" data-node="true" data-id="encerrar" transform="translate(523.24609375, 938)"><rect class="basic label-container" style="" rx="0" ry="0" x="-185.3359375" y="-17" width="370.671875" height="34"></rect><g class="label" style="" transform="translate(-180.3359375, -12)"><rect></rect><foreignObject width="360.671875" height="24"><div xmlns="http://www.w3.org/1999/xhtml" style="display: inline-block; white-space: nowrap;"><span class="nodeLabel">Concluir processamento ou sinalizar falha</span></div></foreignObject></g></g><g class="node default default flowchart-label" id="flowchart-solicitar-298" data-node="true" data-id="solicitar" transform="translate(198.34375, 552)"><rect class="basic label-container" style="" rx="0" ry="0" x="-145.75" y="-17" width="291.5" height="34"></rect><g class="label" style="" transform="translate(-140.75, -12)"><rect></rect><foreignObject width="281.5" height="24"><div xmlns="http://www.w3.org/1999/xhtml" style="display: inline-block; white-space: nowrap;"><span class="nodeLabel">Solicitar processamento de video</span></div></foreignObject></g></g><g class="node default default flowchart-label" id="flowchart-acesso-297" data-node="true" data-id="acesso" transform="translate(274.52734375, 418)"><rect class="basic label-container" style="" rx="0" ry="0" x="-97.3671875" y="-17" width="194.734375" height="34"></rect><g class="label" style="" transform="translate(-92.3671875, -12)"><rect></rect><foreignObject width="184.734375" height="24"><div xmlns="http://www.w3.org/1999/xhtml" style="display: inline-block; white-space: nowrap;"><span class="nodeLabel">Identidade do Usuario</span></div></foreignObject></g></g><g class="node default default flowchart-label" id="flowchart-portal-296" data-node="true" data-id="portal" transform="translate(198.34375, 284)"><rect class="basic label-container" style="" rx="0" ry="0" x="-79.7734375" y="-17" width="159.546875" height="34"></rect><g class="label" style="" transform="translate(-74.7734375, -12)"><rect></rect><foreignObject width="149.546875" height="24"><div xmlns="http://www.w3.org/1999/xhtml" style="display: inline-block; white-space: nowrap;"><span class="nodeLabel">Portal do Usuario</span></div></foreignObject></g></g><g class="node default default flowchart-label" id="flowchart-usuario-295" data-node="true" data-id="usuario" transform="translate(198.34375, 175)"><rect class="basic label-container" style="" rx="0" ry="0" x="-35.7890625" y="-17" width="71.578125" height="34"></rect><g class="label" style="" transform="translate(-30.7890625, -12)"><rect></rect><foreignObject width="61.578125" height="24"><div xmlns="http://www.w3.org/1999/xhtml" style="display: inline-block; white-space: nowrap;"><span class="nodeLabel">Usuario</span></div></foreignObject></g></g></g></g></g></svg>